<mxfile host="app.diagrams.net" agent="Mozilla/5.0 (Windows NT 10.0; Win64; x64) AppleWebKit/537.36 (KHTML, like Gecko) Chrome/134.0.0.0 Safari/537.36" version="26.1.3">
  <diagram name="第 1 页" id="O4gtXIaHybSL9VQmLvnP">
    <mxGraphModel dx="2074" dy="1098" grid="1" gridSize="10" guides="1" tooltips="1" connect="1" arrows="1" fold="1" page="1" pageScale="1" pageWidth="827" pageHeight="1169" math="0" shadow="0">
      <root>
        <mxCell id="0" />
        <mxCell id="1" parent="0" />
        <mxCell id="ySI41hIPptYG6TIIns8g-1" value="" style="rounded=1;whiteSpace=wrap;html=1;dashed=1;dashPattern=8 8;labelBackgroundColor=none;" parent="1" vertex="1">
          <mxGeometry x="414" y="320" width="840" height="530" as="geometry" />
        </mxCell>
        <mxCell id="ySI41hIPptYG6TIIns8g-2" value="&lt;b&gt;&lt;font style=&quot;font-size: 16px;&quot;&gt;Your Computer&lt;/font&gt;&lt;/b&gt;" style="text;html=1;align=center;verticalAlign=middle;whiteSpace=wrap;rounded=0;" parent="1" vertex="1">
          <mxGeometry x="764" y="340" width="140" height="40" as="geometry" />
        </mxCell>
        <mxCell id="ySI41hIPptYG6TIIns8g-9" style="edgeStyle=orthogonalEdgeStyle;rounded=0;orthogonalLoop=1;jettySize=auto;html=1;entryX=0;entryY=0.5;entryDx=0;entryDy=0;fontFamily=Helvetica;fontSize=12;fontColor=default;curved=1;startArrow=classic;startFill=1;" parent="1" source="ySI41hIPptYG6TIIns8g-3" target="ySI41hIPptYG6TIIns8g-5" edge="1">
          <mxGeometry relative="1" as="geometry" />
        </mxCell>
        <mxCell id="ySI41hIPptYG6TIIns8g-20" value="Text" style="edgeLabel;html=1;align=center;verticalAlign=middle;resizable=0;points=[];rounded=1;strokeColor=default;fontFamily=Helvetica;fontSize=14;fontColor=default;fillColor=default;" parent="ySI41hIPptYG6TIIns8g-9" vertex="1" connectable="0">
          <mxGeometry x="-0.0222" relative="1" as="geometry">
            <mxPoint as="offset" />
          </mxGeometry>
        </mxCell>
        <mxCell id="ySI41hIPptYG6TIIns8g-21" value="MCP &lt;br&gt;Protocol" style="edgeLabel;html=1;align=center;verticalAlign=middle;resizable=0;points=[];rounded=1;strokeColor=default;fontFamily=Helvetica;fontSize=14;fontColor=default;fillColor=default;" parent="ySI41hIPptYG6TIIns8g-9" vertex="1" connectable="0">
          <mxGeometry x="0.1111" y="-3" relative="1" as="geometry">
            <mxPoint as="offset" />
          </mxGeometry>
        </mxCell>
        <mxCell id="ySI41hIPptYG6TIIns8g-10" style="edgeStyle=orthogonalEdgeStyle;rounded=0;orthogonalLoop=1;jettySize=auto;html=1;exitX=1;exitY=0.5;exitDx=0;exitDy=0;entryX=0;entryY=0.5;entryDx=0;entryDy=0;fontFamily=Helvetica;fontSize=12;fontColor=default;curved=1;startArrow=classic;startFill=1;" parent="1" source="ySI41hIPptYG6TIIns8g-3" target="ySI41hIPptYG6TIIns8g-4" edge="1">
          <mxGeometry relative="1" as="geometry" />
        </mxCell>
        <mxCell id="ySI41hIPptYG6TIIns8g-19" value="MCP Protocol" style="edgeLabel;html=1;align=center;verticalAlign=middle;resizable=0;points=[];rounded=1;strokeColor=default;fontFamily=Helvetica;fontSize=14;fontColor=default;fillColor=default;" parent="ySI41hIPptYG6TIIns8g-10" vertex="1" connectable="0">
          <mxGeometry x="0.127" y="1" relative="1" as="geometry">
            <mxPoint as="offset" />
          </mxGeometry>
        </mxCell>
        <mxCell id="ySI41hIPptYG6TIIns8g-11" style="edgeStyle=orthogonalEdgeStyle;rounded=0;orthogonalLoop=1;jettySize=auto;html=1;exitX=1;exitY=0.5;exitDx=0;exitDy=0;entryX=0;entryY=0.5;entryDx=0;entryDy=0;fontFamily=Helvetica;fontSize=12;fontColor=default;curved=1;startArrow=classic;startFill=1;" parent="1" source="ySI41hIPptYG6TIIns8g-3" target="ySI41hIPptYG6TIIns8g-6" edge="1">
          <mxGeometry relative="1" as="geometry" />
        </mxCell>
        <mxCell id="ySI41hIPptYG6TIIns8g-22" value="MCP Protocol" style="edgeLabel;html=1;align=center;verticalAlign=middle;resizable=0;points=[];rounded=1;strokeColor=default;fontFamily=Helvetica;fontSize=14;fontColor=default;fillColor=default;" parent="ySI41hIPptYG6TIIns8g-11" vertex="1" connectable="0">
          <mxGeometry x="-0.0055" y="-1" relative="1" as="geometry">
            <mxPoint as="offset" />
          </mxGeometry>
        </mxCell>
        <mxCell id="ySI41hIPptYG6TIIns8g-3" value="&lt;font style=&quot;font-size: 14px;&quot;&gt;Host with MCP Client&lt;br&gt;（Claude，IDEs、Dashboard Tools）&lt;/font&gt;" style="rounded=1;whiteSpace=wrap;html=1;" parent="1" vertex="1">
          <mxGeometry x="464" y="575" width="240" height="80" as="geometry" />
        </mxCell>
        <mxCell id="ySI41hIPptYG6TIIns8g-4" value="&lt;font&gt;MCP Server A&lt;/font&gt;" style="rounded=1;whiteSpace=wrap;html=1;fontSize=14;" parent="1" vertex="1">
          <mxGeometry x="834" y="410" width="120" height="60" as="geometry" />
        </mxCell>
        <mxCell id="ySI41hIPptYG6TIIns8g-5" value="&lt;font style=&quot;font-size: 14px;&quot;&gt;MCP Server B&lt;/font&gt;" style="rounded=1;whiteSpace=wrap;html=1;" parent="1" vertex="1">
          <mxGeometry x="834" y="585" width="120" height="60" as="geometry" />
        </mxCell>
        <mxCell id="ySI41hIPptYG6TIIns8g-6" value="&lt;font style=&quot;font-size: 14px;&quot;&gt;MCP Server C&lt;/font&gt;" style="rounded=1;whiteSpace=wrap;html=1;" parent="1" vertex="1">
          <mxGeometry x="834" y="760" width="120" height="60" as="geometry" />
        </mxCell>
        <mxCell id="ySI41hIPptYG6TIIns8g-13" style="edgeStyle=orthogonalEdgeStyle;rounded=0;orthogonalLoop=1;jettySize=auto;html=1;exitX=1;exitY=0.5;exitDx=0;exitDy=0;entryX=0;entryY=0.5;entryDx=0;entryDy=0;entryPerimeter=0;fontFamily=Helvetica;fontSize=12;fontColor=default;" parent="1" source="ySI41hIPptYG6TIIns8g-4" edge="1">
          <mxGeometry relative="1" as="geometry">
            <mxPoint x="1064" y="440" as="targetPoint" />
          </mxGeometry>
        </mxCell>
        <mxCell id="ySI41hIPptYG6TIIns8g-14" value="Local&lt;br&gt;Data Source A" style="shape=cylinder3;whiteSpace=wrap;html=1;boundedLbl=1;backgroundOutline=1;size=15;rounded=1;strokeColor=default;align=center;verticalAlign=middle;fontFamily=Helvetica;fontSize=14;fontColor=default;fillColor=default;" parent="1" vertex="1">
          <mxGeometry x="1064" y="400" width="120" height="80" as="geometry" />
        </mxCell>
        <mxCell id="ySI41hIPptYG6TIIns8g-15" value="Local&lt;br&gt;Data Source B" style="shape=cylinder3;whiteSpace=wrap;html=1;boundedLbl=1;backgroundOutline=1;size=15;rounded=1;strokeColor=default;align=center;verticalAlign=middle;fontFamily=Helvetica;fontSize=14;fontColor=default;fillColor=default;" parent="1" vertex="1">
          <mxGeometry x="1064" y="575" width="120" height="80" as="geometry" />
        </mxCell>
        <mxCell id="ySI41hIPptYG6TIIns8g-17" style="edgeStyle=orthogonalEdgeStyle;rounded=0;orthogonalLoop=1;jettySize=auto;html=1;exitX=1;exitY=0.5;exitDx=0;exitDy=0;entryX=0;entryY=0.5;entryDx=0;entryDy=0;entryPerimeter=0;fontFamily=Helvetica;fontSize=14;fontColor=default;" parent="1" source="ySI41hIPptYG6TIIns8g-6" edge="1">
          <mxGeometry relative="1" as="geometry">
            <mxPoint x="1064" y="790" as="targetPoint" />
          </mxGeometry>
        </mxCell>
        <mxCell id="ySI41hIPptYG6TIIns8g-18" style="edgeStyle=orthogonalEdgeStyle;rounded=0;orthogonalLoop=1;jettySize=auto;html=1;exitX=1;exitY=0.5;exitDx=0;exitDy=0;entryX=0;entryY=0.5;entryDx=0;entryDy=0;entryPerimeter=0;fontFamily=Helvetica;fontSize=14;fontColor=default;" parent="1" source="ySI41hIPptYG6TIIns8g-5" target="ySI41hIPptYG6TIIns8g-15" edge="1">
          <mxGeometry relative="1" as="geometry" />
        </mxCell>
        <mxCell id="ySI41hIPptYG6TIIns8g-23" value="Remote&lt;br&gt;Service C" style="shape=cylinder3;whiteSpace=wrap;html=1;boundedLbl=1;backgroundOutline=1;size=15;rounded=1;strokeColor=default;align=center;verticalAlign=middle;fontFamily=Helvetica;fontSize=14;fontColor=default;fillColor=default;" parent="1" vertex="1">
          <mxGeometry x="1064" y="750" width="120" height="80" as="geometry" />
        </mxCell>
        <mxCell id="ySI41hIPptYG6TIIns8g-24" value="&lt;b&gt;Internet&lt;/b&gt;" style="text;html=1;align=center;verticalAlign=middle;whiteSpace=wrap;rounded=0;fontFamily=Helvetica;fontSize=14;fontColor=default;" parent="1" vertex="1">
          <mxGeometry x="1094" y="750" width="60" height="30" as="geometry" />
        </mxCell>
      </root>
    </mxGraphModel>
  </diagram>
</mxfile>
